<?xml version="1.0" encoding="iso-8859-1"?>
<!-- Uploaded to: SVG Repo, www.svgrepo.com, Generator: SVG Repo Mixer Tools -->
<svg height="800px" width="800px" version="1.1" id="Layer_1" xmlns="http://www.w3.org/2000/svg" xmlns:xlink="http://www.w3.org/1999/xlink" 
	 viewBox="0 0 392.597 392.597" xml:space="preserve">
<path style="fill:#FFFFFF;" d="M260.46,79.708L260.46,79.708c-3.103-31.612-29.414-56.501-61.285-57.859
	c-51.588-1.293-68.461,44.735-67.491,64.453c0,15.192,5.43,29.996,15.192,41.568c17.325,20.493,26.828,45.253,26.828,69.947v1.099
	c0,4.008,3.232,7.24,7.24,7.24h4.396v-81.519l-21.269-21.075c-4.267-4.267-4.267-11.119,0-15.451c4.267-4.267,11.119-4.267,15.451,0
	l16.614,16.614l16.614-16.614c4.267-4.267,11.119-4.267,15.451,0c4.267,4.267,4.267,11.119,0,15.451l-21.204,21.204v81.519h4.331
	c4.008,0,7.24-3.232,7.24-7.24c0-26.246,9.18-51.071,25.794-69.883C256.646,115.458,262.27,97.874,260.46,79.708z"/>
<path style="fill:#194F82;" d="M282.117,77.575c-4.202-42.279-39.434-75.636-81.972-77.511
	c-55.273-2.004-90.505,43.442-90.182,86.238c0,20.299,7.176,40.081,20.299,55.661c14.158,16.743,21.657,36.073,21.657,55.855v1.099
	c0,15.968,13.059,29.026,29.026,29.026h15.127h0.065h0.065h15.127c15.968,0,29.026-13.059,29.026-29.026
	c0-20.945,7.24-40.598,20.299-55.402C277.01,125.349,284.573,101.947,282.117,77.575z M211.458,206.157h-4.331v-81.519
	l21.204-21.204c4.267-4.267,4.267-11.119,0-15.451c-4.267-4.267-11.119-4.267-15.451,0l-16.614,16.743l-16.614-16.614
	c-4.267-4.267-11.119-4.267-15.451,0c-4.267,4.267-4.267,11.119,0,15.451l21.204,21.204v81.519h-4.396
	c-4.008,0-7.24-3.232-7.24-7.24v-1.164c0-24.63-9.503-49.455-26.828-69.947c-9.826-11.572-15.192-26.376-15.192-41.568
	c-1.034-19.782,15.838-65.81,67.491-64.453c31.806,1.422,58.117,26.246,61.285,57.859l0,0c1.745,18.166-3.879,35.685-15.838,49.325
	c-16.679,18.747-25.794,43.572-25.794,69.883C218.763,202.925,215.531,206.157,211.458,206.157z"/>
<path style="fill:#FFC10D;" d="M207.192,124.638v23.467c5.172-12.218,12.283-23.596,21.075-33.616
	c7.952-8.986,11.636-20.558,10.537-32.711c-2.004-20.558-19.846-37.301-40.598-38.271c-0.711,0-1.293-0.065-2.004-0.065
	c-23.467,0-42.667,19.135-42.667,42.731c0,12.929,5.495,22.109,10.02,27.539c9.18,10.796,16.485,22.82,21.721,35.297v-24.501
	l-21.075-21.01c-4.267-4.267-4.267-11.119,0-15.451c4.267-4.267,11.119-4.267,15.451,0l16.614,16.614l16.614-16.614
	c4.267-4.267,11.119-4.267,15.451,0c4.267,4.267,4.267,11.119,0,15.451L207.192,124.638z"/>
<path style="fill:#56ACE0;" d="M284.638,278.884c-14.093-3.879-28.768-6.788-43.766-8.792l-34.844,71.111
	c-4.008,8.145-15.58,8.145-19.523,0l-34.844-71.111c-14.998,2.004-29.737,4.913-43.766,8.792
	c-8.727,2.392-15.58,8.339-19.459,15.968h30.125c6.012,0,10.925,4.848,10.925,10.925c0,6.012-4.848,10.925-10.925,10.925H85.204
	v15.321h13.834c6.012,0,10.925,4.848,10.925,10.925c0,6.012-4.848,10.925-10.925,10.925H85.204v17.002h222.319v-62.513
	C307.394,294.658,298.02,282.569,284.638,278.884z"/>
<path style="fill:#194F82;" d="M290.456,257.874L290.456,257.874c-17.519-4.784-35.943-8.275-54.691-10.343l0,0
	c-4.59-0.453-8.986,1.939-10.99,6.012l-28.509,58.117l-28.509-58.117c-2.004-4.073-6.4-6.594-10.99-6.012
	c-18.747,2.069-37.236,5.56-54.691,10.343c-22.82,6.271-38.788,26.958-38.788,50.36v73.438c0,6.012,4.848,10.925,10.925,10.925
	h244.17c6.012,0,10.925-4.848,10.925-10.925v-73.438C329.244,284.832,313.276,264.08,290.456,257.874z M307.394,370.747H85.139
	v-17.002h13.834c6.012,0,10.925-4.848,10.925-10.925c0-6.012-4.848-10.925-10.925-10.925H85.139v-15.321h33.358
	c6.012,0,10.925-4.848,10.925-10.925c0-6.012-4.848-10.925-10.925-10.925H88.371c3.879-7.564,10.731-13.576,19.459-15.968
	c14.093-3.879,28.768-6.788,43.766-8.792l34.844,71.111c4.008,8.145,15.58,8.145,19.523,0l34.844-71.111
	c15.063,2.004,29.737,4.913,43.766,8.792c13.382,3.685,22.691,15.774,22.691,29.349v62.513h0.129V370.747z"/>
</svg>