<?xml version="1.0" encoding="iso-8859-1"?>
<!-- Uploaded to: SVG Repo, www.svgrepo.com, Generator: SVG Repo Mixer Tools -->
<svg height="800px" width="800px" version="1.1" id="Layer_1" xmlns="http://www.w3.org/2000/svg" xmlns:xlink="http://www.w3.org/1999/xlink" 
	 viewBox="0 0 392.598 392.598" xml:space="preserve">
<path style="fill:#FFFFFF;" d="M103.596,197.042c19.782,0,35.879-16.097,35.879-35.879s-16.097-35.879-35.879-35.879
	s-35.879,16.097-35.879,35.879C67.782,180.945,83.879,197.042,103.596,197.042z"/>
<path style="fill:#56ACE0;" d="M185.374,284.509c0-11.055-8.986-20.04-20.04-20.04h-17.455l-34.327,76.347
	c-3.879,8.598-15.968,8.598-19.846,0l-34.392-76.347H41.859c-11.055,0-20.04,8.986-20.04,20.04v86.238h163.556V284.509z"/>
<g>
	<path style="fill:#194F82;" d="M103.596,218.828c31.741,0,57.665-25.859,57.665-57.665s-25.794-57.665-57.665-57.665
		s-57.665,25.859-57.665,57.665S71.79,218.828,103.596,218.828z M103.596,125.414c19.782,0,35.879,16.097,35.879,35.879
		s-16.097,35.879-35.879,35.879s-35.879-16.097-35.879-35.879C67.782,141.511,83.879,125.414,103.596,125.414z"/>
	<path style="fill:#194F82;" d="M165.398,242.683h-24.501c-4.331,0-8.21,2.521-9.956,6.4l-27.345,60.768l-27.345-60.638
		c-1.745-3.943-5.624-6.4-9.956-6.4H41.859C18.78,242.747,0.032,261.43,0.032,284.509v97.164c0,6.012,4.848,10.925,10.925,10.925
		h185.341c6.012,0,10.925-4.848,10.925-10.925v-97.164C207.224,261.43,188.477,242.683,165.398,242.683z M21.818,284.509
		c0-11.055,8.986-20.04,20.04-20.04h17.455l34.392,76.347c3.879,8.598,15.968,8.598,19.846,0l34.392-76.347h17.455
		c11.055,0,20.04,8.986,20.04,20.04v86.238H21.883v-86.238H21.818z"/>
</g>
<path style="fill:#FFC10D;" d="M361.018,21.786h-133.43c-5.301,0-9.632,4.331-9.632,9.632v20.299h38.659
	c6.012,0,10.925,4.848,10.925,10.925c0,6.012-4.848,10.925-10.925,10.925h-38.723v21.786h21.398c6.012,0,10.925,4.848,10.925,10.925
	c0,6.012-4.848,10.925-10.925,10.925h-21.398v17.519c0,5.301,4.331,9.632,9.632,9.632h11.572c6.012,0,10.925,4.848,10.925,10.925
	v26.053l36.848-34.069c2.004-1.875,4.655-2.844,7.434-2.844h66.78c5.301,0,9.632-4.331,9.632-9.632V31.547
	C370.78,26.117,366.449,21.786,361.018,21.786z"/>
<g>
	<path style="fill:#194F82;" d="M361.018,0h-133.43c-17.39,0-31.547,14.158-31.547,31.547v103.305
		c0,17.39,14.093,31.547,31.547,31.547h0.711v39.952c0,9.503,11.313,14.481,18.295,8.016l51.976-48.032h62.448
		c17.39,0,31.547-14.158,31.547-31.547V31.547C392.566,14.158,378.408,0,361.018,0z M361.147,144.42h-66.78
		c-2.715,0-5.43,1.034-7.434,2.844l-36.848,34.069v-26.053c0-6.012-4.848-10.925-10.925-10.925h-11.572
		c-5.301,0-9.632-4.331-9.632-9.632v-17.519h21.398c6.012,0,10.925-4.848,10.925-10.925c0-6.077-4.848-10.925-10.925-10.925h-21.398
		V73.503h38.659c6.012,0,10.925-4.848,10.925-10.925s-4.848-10.925-10.925-10.925h-38.723V31.418c0-5.301,4.331-9.632,9.632-9.632
		h133.56c5.301,0,9.632,4.331,9.632,9.632v103.24h0.065C370.78,140.089,366.449,144.42,361.147,144.42z"/>
	<path style="fill:#194F82;" d="M294.368,30.901c-6.012,0-10.925,4.848-10.925,10.925v36.655c0,6.012,4.848,10.925,10.925,10.925
		c6.077,0,10.925-4.848,10.925-10.925V41.826C305.228,35.749,300.38,30.901,294.368,30.901z"/>
	<path style="fill:#194F82;" d="M294.368,100.267c-6.012,0-10.925,4.848-10.925,10.925v8.275c0,6.012,4.848,10.925,10.925,10.925
		c6.077,0,10.925-4.848,10.925-10.925v-8.275C305.228,105.18,300.38,100.267,294.368,100.267z"/>
</g>
</svg>